HIERARCHY
ROOT Hips
{
	OFFSET 0.000000 0.000000 0.000000
	CHANNELS 6 Xposition Yposition Zposition Xrotation Yrotation Zrotation
	JOINT Spine
	{
		OFFSET 0.000000 8.340413 -2.713950
		CHANNELS 3 Xrotation Yrotation Zrotation
		JOINT Spine1
		{
			OFFSET 0.000000 11.909995 -2.100054
			CHANNELS 3 Xrotation Yrotation Zrotation
			JOINT Spine2
			{
				OFFSET 0.000000 12.047703 -1.054038
				CHANNELS 3 Xrotation Yrotation Zrotation
				JOINT Spine3
				{
					OFFSET 0.000000 12.093727 -0.000000
					CHANNELS 3 Xrotation Yrotation Zrotation
					JOINT Neck
					{
						OFFSET 0.000000 15.549080 1.554907
						CHANNELS 3 Xrotation Yrotation Zrotation
						JOINT Neck1
						{
							OFFSET 0.000000 4.687340 0.410089
							CHANNELS 3 Xrotation Yrotation Zrotation
							JOINT Head
							{
								OFFSET 0.000000 4.633774 0.817058
								CHANNELS 3 Xrotation Yrotation Zrotation
								JOINT HeadEnd
								{
									OFFSET 0.000000 9.727722 0.000000
									CHANNELS 3 Xrotation Yrotation Zrotation
									End Site
									{
										OFFSET 0.000000 9.727722 -0.000000
									}
								}
							}
						}
					}
					JOINT RightShoulder
					{
						OFFSET 0.000000 11.106487 6.072617
						CHANNELS 3 Xrotation Yrotation Zrotation
						JOINT RightArm
						{
							OFFSET -19.427898 0.000008 0.000000
							CHANNELS 3 Xrotation Yrotation Zrotation
							JOINT RightForeArm
							{
								OFFSET -29.350750 0.000008 0.000000
								CHANNELS 3 Xrotation Yrotation Zrotation
								JOINT RightHand
								{
									OFFSET -27.018089 0.000008 0.000000
									CHANNELS 3 Xrotation Yrotation Zrotation
									JOINT RightHandMiddle1
									{
										OFFSET -9.244034 0.000004 0.000000
										CHANNELS 3 Xrotation Yrotation Zrotation
										JOINT RightHandMiddle2
										{
											OFFSET -4.870026 0.000000 0.000000
											CHANNELS 3 Xrotation Yrotation Zrotation
											JOINT RightHandMiddle3
											{
												OFFSET -3.169075 0.000000 0.000000
												CHANNELS 3 Xrotation Yrotation Zrotation
												JOINT RightHandMiddle4
												{
													OFFSET -1.888374 0.000000 0.000000
													CHANNELS 3 Xrotation Yrotation Zrotation
													End Site
													{
														OFFSET -1.888367 0.000000 0.000000
													}
												}
											}
										}
									}
									JOINT RightHandRing
									{
										OFFSET -0.250000 -0.250000 -0.956503
										CHANNELS 3 Xrotation Yrotation Zrotation
										JOINT RightHandRing1
										{
											OFFSET -8.140221 0.000004 -0.734604
											CHANNELS 3 Xrotation Yrotation Zrotation
											JOINT RightHandRing2
											{
												OFFSET -4.501564 0.000000 -0.406238
												CHANNELS 3 Xrotation Yrotation Zrotation
												JOINT RightHandRing3
												{
													OFFSET -3.068840 0.000000 -0.276944
													CHANNELS 3 Xrotation Yrotation Zrotation
													JOINT RightHandRing4
													{
														OFFSET -1.869919 0.000000 -0.168749
														CHANNELS 3 Xrotation Yrotation Zrotation
														End Site
														{
															OFFSET -1.869919 0.000000 -0.168749
														}
													}
												}
											}
										}
										JOINT RightHandPinky
										{
											OFFSET -0.163017 -0.250000 -0.975101
											CHANNELS 3 Xrotation Yrotation Zrotation
											JOINT RightHandPinky1
											{
												OFFSET -6.681488 0.000004 -1.494111
												CHANNELS 3 Xrotation Yrotation Zrotation
												JOINT RightHandPinky2
												{
													OFFSET -3.580948 0.000000 -0.800769
													CHANNELS 3 Xrotation Yrotation Zrotation
													JOINT RightHandPinky3
													{
														OFFSET -2.276527 0.000000 -0.509077
														CHANNELS 3 Xrotation Yrotation Zrotation
														JOINT RightHandPinky4
														{
															OFFSET -1.690346 0.000000 -0.377994
															CHANNELS 3 Xrotation Yrotation Zrotation
															End Site
															{
																OFFSET -1.690346 0.000000 -0.377994
															}
														}
													}
												}
											}
										}
									}
									JOINT RightHandIndex
									{
										OFFSET -0.250000 -0.250000 0.956503
										CHANNELS 3 Xrotation Yrotation Zrotation
										JOINT RightHandIndex1
										{
											OFFSET -8.934097 0.000004 0.806247
											CHANNELS 3 Xrotation Yrotation Zrotation
											JOINT RightHandIndex2
											{
												OFFSET -4.694687 0.000000 0.423666
												CHANNELS 3 Xrotation Yrotation Zrotation
												JOINT RightHandIndex3
												{
													OFFSET -2.811722 0.000000 0.253741
													CHANNELS 3 Xrotation Yrotation Zrotation
													JOINT RightHandIndex4
													{
														OFFSET -1.709946 0.000000 0.154312
														CHANNELS 3 Xrotation Yrotation Zrotation
														End Site
														{
															OFFSET -1.709946 0.000000 0.154312
														}
													}
												}
											}
										}
										JOINT RightHandThumb1
										{
											OFFSET -0.163017 -0.750000 0.975101
											CHANNELS 3 Xrotation Yrotation Zrotation
											JOINT RightHandThumb2
											{
												OFFSET -5.411659 0.835533 2.244703
												CHANNELS 3 Xrotation Yrotation Zrotation
												JOINT RightHandThumb3
												{
													OFFSET -3.567184 0.550758 1.479634
													CHANNELS 3 Xrotation Yrotation Zrotation
													JOINT RightHandThumb4
													{
														OFFSET -2.150558 0.332031 0.892029
														CHANNELS 3 Xrotation Yrotation Zrotation
														End Site
														{
															OFFSET -2.150558 0.332035 0.892030
														}
													}
												}
											}
										}
									}
								}
							}
						}
					}
					JOINT LeftShoulder
					{
						OFFSET 0.000000 11.106487 6.072617
						CHANNELS 3 Xrotation Yrotation Zrotation
						JOINT LeftArm
						{
							OFFSET 19.427898 0.000008 0.000000
							CHANNELS 3 Xrotation Yrotation Zrotation
							JOINT LeftForeArm
							{
								OFFSET 29.350750 0.000008 0.000000
								CHANNELS 3 Xrotation Yrotation Zrotation
								JOINT LeftHand
								{
									OFFSET 27.018089 0.000008 0.000000
									CHANNELS 3 Xrotation Yrotation Zrotation
									JOINT LeftHandMiddle1
									{
										OFFSET 9.402672 0.000004 0.000000
										CHANNELS 3 Xrotation Yrotation Zrotation
										JOINT LeftHandMiddle2
										{
											OFFSET 4.950096 0.000000 0.000000
											CHANNELS 3 Xrotation Yrotation Zrotation
											JOINT LeftHandMiddle3
											{
												OFFSET 3.211952 0.000000 0.000000
												CHANNELS 3 Xrotation Yrotation Zrotation
												JOINT LeftHandMiddle4
												{
													OFFSET 1.927605 0.000000 0.000000
													CHANNELS 3 Xrotation Yrotation Zrotation
													End Site
													{
														OFFSET 1.927605 0.000000 0.000000
													}
												}
											}
										}
									}
									JOINT LeftHandRing
									{
										OFFSET 0.250000 -0.250000 -0.906160
										CHANNELS 3 Xrotation Yrotation Zrotation
										JOINT LeftHandRing1
										{
											OFFSET 8.286079 0.000004 -0.747767
											CHANNELS 3 Xrotation Yrotation Zrotation
											JOINT LeftHandRing2
											{
												OFFSET 4.585472 0.000000 -0.413810
												CHANNELS 3 Xrotation Yrotation Zrotation
												JOINT LeftHandRing3
												{
													OFFSET 3.124420 0.000000 -0.281959
													CHANNELS 3 Xrotation Yrotation Zrotation
													JOINT LeftHandRing4
													{
														OFFSET 1.908768 0.000000 -0.172254
														CHANNELS 3 Xrotation Yrotation Zrotation
														End Site
														{
															OFFSET 1.908768 0.000000 -0.172255
														}
													}
												}
											}
										}
										JOINT LeftHandPinky
										{
											OFFSET 0.167542 -0.250000 -0.924962
											CHANNELS 3 Xrotation Yrotation Zrotation
											JOINT LeftHandPinky1
											{
												OFFSET 6.823502 0.000004 -1.525868
												CHANNELS 3 Xrotation Yrotation Zrotation
												JOINT LeftHandPinky2
												{
													OFFSET 3.642830 0.000000 -0.814608
													CHANNELS 3 Xrotation Yrotation Zrotation
													JOINT LeftHandPinky3
													{
														OFFSET 2.333107 0.000000 -0.521728
														CHANNELS 3 Xrotation Yrotation Zrotation
														JOINT LeftHandPinky4
														{
															OFFSET 1.725464 0.000000 -0.385847
															CHANNELS 3 Xrotation Yrotation Zrotation
															End Site
															{
																OFFSET 1.725464 0.000000 -0.385848
															}
														}
													}
												}
											}
										}
									}
									JOINT LeftHandIndex
									{
										OFFSET 0.250000 -0.250000 0.906160
										CHANNELS 3 Xrotation Yrotation Zrotation
										JOINT LeftHandIndex1
										{
											OFFSET 9.088005 0.000004 0.820136
											CHANNELS 3 Xrotation Yrotation Zrotation
											JOINT LeftHandIndex2
											{
												OFFSET 4.776550 0.000000 0.431054
												CHANNELS 3 Xrotation Yrotation Zrotation
												JOINT LeftHandIndex3
												{
													OFFSET 2.865135 0.000000 0.258561
													CHANNELS 3 Xrotation Yrotation Zrotation
													JOINT LeftHandIndex4
													{
														OFFSET 1.745476 0.000000 0.157519
														CHANNELS 3 Xrotation Yrotation Zrotation
														End Site
														{
															OFFSET 1.745476 0.000000 0.157518
														}
													}
												}
											}
										}
										JOINT LeftHandThumb1
										{
											OFFSET 0.167542 -0.750000 0.924962
											CHANNELS 3 Xrotation Yrotation Zrotation
											JOINT LeftHandThumb2
											{
												OFFSET 5.551453 0.857117 2.302688
												CHANNELS 3 Xrotation Yrotation Zrotation
												JOINT LeftHandThumb3
												{
													OFFSET 3.625626 0.559780 1.503871
													CHANNELS 3 Xrotation Yrotation Zrotation
													JOINT LeftHandThumb4
													{
														OFFSET 2.195244 0.338936 0.910563
														CHANNELS 3 Xrotation Yrotation Zrotation
														End Site
														{
															OFFSET 2.195244 0.338936 0.910564
														}
													}
												}
											}
										}
									}
								}
							}
						}
					}
				}
			}
		}
	}
	JOINT RightUpLeg
	{
		OFFSET -8.786538 0.000000 0.000000
		CHANNELS 3 Xrotation Yrotation Zrotation
		JOINT RightLeg
		{
			OFFSET 0.000000 -42.170410 0.000000
			CHANNELS 3 Xrotation Yrotation Zrotation
			JOINT RightFoot
			{
				OFFSET 0.000000 -45.949150 0.000000
				CHANNELS 3 Xrotation Yrotation Zrotation
				JOINT RightForeFoot
				{
					OFFSET 0.000000 -4.685799 0.000000
					CHANNELS 3 Xrotation Yrotation Zrotation
					JOINT RightToeBase
					{
						OFFSET 0.000000 0.000000 18.351074
						CHANNELS 3 Xrotation Yrotation Zrotation
						JOINT RightToeBaseEnd
						{
							OFFSET 0.000000 0.000000 6.416922
							CHANNELS 3 Xrotation Yrotation Zrotation
							End Site
							{
								OFFSET 0.000000 0.000000 6.416927
							}
						}
					}
				}
			}
		}
	}
	JOINT LeftUpLeg
	{
		OFFSET 8.786538 0.000000 0.000000
		CHANNELS 3 Xrotation Yrotation Zrotation
		JOINT LeftLeg
		{
			OFFSET 0.000000 -42.170410 0.000000
			CHANNELS 3 Xrotation Yrotation Zrotation
			JOINT LeftFoot
			{
				OFFSET 0.000000 -45.949150 0.000000
				CHANNELS 3 Xrotation Yrotation Zrotation
				JOINT LeftForeFoot
				{
					OFFSET 0.000000 -4.685799 0.000000
					CHANNELS 3 Xrotation Yrotation Zrotation
					JOINT LeftToeBase
					{
						OFFSET 0.000000 0.000000 18.351074
						CHANNELS 3 Xrotation Yrotation Zrotation
						JOINT LeftToeBaseEnd
						{
							OFFSET 0.000000 0.000000 7.522032
							CHANNELS 3 Xrotation Yrotation Zrotation
							End Site
							{
								OFFSET 0.000000 0.000000 7.522036
							}
						}
					}
				}
			}
		}
	}
}
MOTION
Frames: 4
Frame Time: 0.5
5.242265 0.478447 7.843595 -11.810519 17.618729 13.233849 9.961682 1.400878 -6.455408 -0.775881 0.064569 0.279354 1.558651 0.700993 0.028891 7.071630 1.058382 2.585811 8.124846 -2.008028 10.685288 9.677833 -0.386258 -20.767818 1.980548 0.664330 -4.695646 0.000000 0.000001 0.000000 -0.000003 -7.418349 10.093946 -2.610649 13.833018 63.783546 -513.141235 114.077118 514.879517 1.620106 -0.892592 -20.671684 4.561324 -7.340538 32.380726 0.000001 0.000001 16.046099 0.000001 0.000000 9.702369 0.000001 -0.000000 0.000000 -6.855118 -2.629794 -1.814014 1.068583 -6.759655 40.312279 -2.441877 -0.734850 28.761772 -1.009017 -0.120721 11.327807 -0.000000 -0.000000 0.000000 -3.924451 -4.838855 -2.758860 -6.327274 -3.956641 33.570526 -6.780097 -2.284070 32.570370 -5.059732 -1.117353 23.298916 -0.000000 -0.000000 0.000000 -0.943012 7.632735 -0.243661 5.169354 -9.911946 19.275286 0.785021 0.157812 8.847951 0.782027 0.082961 8.721874 0.000000 0.000000 -0.000000 44.025097 10.729166 -1.758535 -0.900585 0.773090 -1.695717 1.660524 -2.808501 4.711225 -0.000001 -0.000001 0.000002 -0.000002 5.150251 -11.384053 -1.696620 -15.782216 -64.297279 -270.925629 -131.916748 -274.010101 -3.992751 14.218130 17.643084 1.939203 3.793208 -31.563484 0.000000 -0.000000 -12.342989 0.000001 -0.000000 -7.115567 0.000000 -0.000000 -0.000000 -9.962137 2.171524 -0.242700 -1.626649 1.964789 -28.651703 -2.590217 0.779086 -31.107136 -0.075717 0.020015 -0.827980 -0.000000 0.000000 0.000000 -6.952296 1.339773 -0.030302 -0.948449 7.326639 -15.277905 -5.457789 1.171311 -25.505871 -3.902801 0.616227 -17.747360 0.000000 0.000000 -0.000000 -4.926600 -7.245700 0.216644 5.999064 8.166056 -24.170475 0.114994 -0.281447 -1.301391 -0.239527 -0.060002 2.701237 0.000000 -0.000000 0.000000 48.834862 -4.794134 -13.118293 -1.123629 0.947704 2.239776 -1.169663 -2.766419 4.186021 0.000001 0.000000 0.000001 16.028484 -14.512567 -12.940367 4.143114 0.000000 0.000000 -15.162670 -15.471208 -22.392231 -0.000000 -0.000000 -0.000001 14.875677 -0.000000 -0.000000 0.000000 0.000000 -0.000000 18.650412 -3.865481 -5.725614 -0.038007 -0.000000 -0.000000 -4.106292 22.292454 -4.271659 0.000000 0.000000 0.000000 0.138159 -0.000000 -0.000000 -0.000000 -0.000000 -0.000000
6.777009 0.590655 8.495781 -12.031124 17.438059 13.612469 10.257383 1.451343 -6.693807 -0.665017 0.045191 0.269748 1.625532 0.505121 0.058409 6.959912 1.028367 2.557477 7.810748 -2.443412 11.210838 9.674026 -0.575031 -20.747585 1.955404 0.625495 -4.583060 0.000000 0.000001 0.000000 -0.000003 -7.881934 10.792353 1.661217 12.982990 62.826977 -387.541718 112.974297 390.075226 1.114957 -2.174800 -18.637009 4.671438 -7.633561 32.661041 0.000000 0.000001 17.215811 0.000001 0.000000 10.052473 0.000000 -0.000000 0.000000 -6.559526 -2.627780 -1.855232 1.214869 -6.883954 41.241364 -2.608511 -0.755249 30.384865 -1.052501 -0.127729 11.781654 -0.000000 -0.000000 -0.000000 -3.834613 -4.953689 -2.795905 -6.533864 -3.551363 34.584866 -7.209542 -2.316777 34.224979 -5.293670 -1.173867 24.483019 -0.000000 -0.000000 0.000000 -0.678864 7.631325 -0.220228 5.030017 -10.092013 18.845032 0.856232 0.177730 9.530405 0.828034 0.086114 9.179190 0.000000 0.000000 -0.000000 44.810223 10.483154 -1.394166 -0.478517 0.597548 -0.533730 1.976800 -3.326314 5.542712 -0.000001 -0.000002 0.000002 -0.000002 5.240983 -12.229225 1.944037 -13.232903 -64.118568 -247.330780 -128.499039 -244.154327 -4.052687 14.534526 16.234999 1.924059 3.799991 -32.447060 0.000000 -0.000000 -13.938662 0.000000 -0.000000 -7.734526 0.000000 0.000000 -0.000000 -9.954104 2.118124 -0.174765 -1.646854 2.009260 -29.228485 -2.642746 0.787879 -31.448366 -0.118857 0.021345 -1.319658 -0.000000 0.000000 -0.000000 -6.930471 1.235783 0.029263 -0.977776 7.738928 -15.820564 -5.410681 1.129190 -25.022797 -3.937748 0.630204 -17.937626 0.000000 0.000000 -0.000000 -5.064179 -7.272168 0.156298 6.366151 8.571119 -25.420483 0.364572 -0.244948 -4.082709 -0.101695 -0.050702 1.105932 0.000000 -0.000000 0.000000 49.132843 -5.025292 -12.738794 -1.193424 -0.354911 2.789599 -1.422094 -3.289528 5.055822 0.000001 0.000000 0.000001 17.683208 -13.961659 -14.589785 3.892810 0.000000 0.000000 -14.121572 -14.305326 -21.770309 -0.000000 -0.000000 -0.000000 2.437885 0.000000 -0.000000 -0.000000 0.000000 -0.000000 20.912693 -4.285086 -6.277173 -2.257580 -0.000000 -0.000000 -3.497889 22.463652 -6.539785 0.000000 0.000000 0.000000 -1.154523 -0.000000 0.000000 -0.000000 -0.000000 -0.000000
6.849215 0.572119 8.315283 -11.951385 17.122633 13.605587 10.142241 1.461134 -6.775797 -0.676019 0.043885 0.264064 1.590099 0.500580 0.042896 6.969553 1.023460 2.554366 7.599260 -2.330083 11.059373 9.795557 -0.409279 -20.703892 2.022312 0.643583 -4.630201 0.000000 0.000001 0.000000 -0.000003 -8.020348 10.803967 2.393151 12.945797 62.810673 -372.803284 111.845673 370.086761 0.805386 -2.541432 -18.947784 4.751612 -7.749501 32.472023 0.000000 0.000001 18.070723 0.000001 0.000000 10.255833 0.000000 -0.000000 0.000000 -6.378960 -2.612294 -1.906636 1.236983 -6.918820 40.944229 -2.635917 -0.758126 30.798401 -1.077707 -0.131492 12.072808 -0.000000 -0.000000 0.000000 -3.848846 -4.988598 -2.826048 -6.541900 -3.482217 34.200954 -7.290759 -2.342246 34.703793 -5.386222 -1.219594 24.823063 -0.000000 -0.000000 0.000000 -0.570409 7.631953 -0.190080 5.094280 -10.242588 18.832310 0.914948 0.188835 10.210052 0.863662 0.092301 9.573632 0.000000 0.000000 0.000000 44.802372 10.511736 -1.491023 -0.505538 0.596296 -0.715890 2.053071 -3.393620 5.747394 -0.000002 -0.000002 0.000002 -0.000002 5.339399 -12.247173 2.169163 -13.053130 -63.857811 -241.262390 -127.904465 -242.591278 -4.178219 15.137156 16.218990 1.923255 3.817257 -32.561790 0.000000 -0.000000 -14.989407 0.000000 -0.000000 -8.115660 0.000000 0.000000 -0.000000 -9.873847 2.088674 -0.158145 -1.616566 1.976617 -29.192577 -2.705847 0.823248 -32.230175 -0.144173 0.022488 -1.589370 -0.000000 0.000000 -0.000000 -6.960807 1.219470 0.022062 -0.949682 7.794895 -15.691148 -5.497830 1.148701 -25.468225 -4.017958 0.655078 -18.268549 0.000000 0.000000 -0.000000 -5.023666 -7.276170 0.127260 6.434451 8.569659 -25.725348 0.476832 -0.240327 -5.192597 -0.058141 -0.047303 0.638370 0.000000 0.000000 0.000000 49.443676 -4.961779 -13.005310 -1.079275 -0.320467 2.509539 -1.362484 -3.189919 4.843493 0.000001 -0.000000 0.000001 17.797762 -14.622945 -14.779734 4.135771 0.000000 0.000000 -13.531512 -14.259048 -22.442497 -0.000000 -0.000000 -0.000001 3.696732 -0.000000 -0.000000 -0.000000 0.000000 -0.000000 20.957361 -4.422292 -6.392164 -2.565417 -0.000000 -0.000000 -3.508655 22.810129 -6.121738 0.000000 0.000000 0.000000 -1.369614 0.000000 0.000000 -0.000000 -0.000000 -0.000000
4.322549 0.541971 7.295877 -11.461264 18.426369 13.609479 9.745636 1.438625 -6.756661 -0.775751 0.032064 0.256170 1.511289 0.300427 0.097930 7.055837 0.992633 2.598480 7.242760 -2.708372 11.108891 9.647567 -0.659160 -20.212332 2.062186 0.604455 -4.557078 0.000000 0.000001 0.000000 -0.000003 -8.090903 10.758812 3.813272 15.392090 63.077286 -531.490173 116.481544 541.993103 0.814145 -2.947288 -18.948563 4.712642 -7.601752 33.328079 0.000000 0.000001 19.629824 0.000001 0.000000 10.679426 0.000000 0.000000 0.000000 -6.304740 -2.522941 -1.904122 1.289910 -6.758643 42.098869 -2.767383 -0.866119 32.683601 -1.112295 -0.146324 12.473992 -0.000000 -0.000000 0.000000 -3.834514 -4.946011 -2.840241 -6.780399 -3.229309 34.693817 -7.505634 -2.533086 35.968674 -5.532124 -1.280847 25.636971 -0.000000 0.000000 0.000000 -0.667638 7.628299 -0.202899 5.192966 -10.185929 19.542994 0.992221 0.208643 11.194151 0.898446 0.103971 10.030684 0.000000 0.000000 0.000000 44.771568 10.340579 -1.350438 -0.646646 0.126995 -0.789196 2.202286 -3.650465 6.094382 -0.000001 -0.000002 0.000002 -0.000002 5.383524 -12.183329 4.727107 -15.335232 -62.009842 -244.338776 -131.325470 -244.568481 -4.310803 15.495035 16.182304 1.668002 3.084832 -34.343121 0.000000 -0.000000 -16.999531 0.000000 -0.000000 -9.669374 0.000000 0.000000 -0.000000 -10.435478 1.931391 -0.218490 -1.644315 2.078935 -30.197405 -2.821034 0.898727 -33.696003 -0.230600 0.032487 -2.573211 -0.000000 0.000000 -0.000000 -6.922225 1.072561 0.138565 -0.941025 7.794392 -16.815805 -5.806557 1.298263 -27.028473 -4.233098 0.728314 -19.315327 0.000000 0.000000 0.000000 -5.500577 -7.323963 0.233937 6.486919 8.613391 -26.294973 0.535016 -0.280682 -5.960653 -0.019837 -0.045885 0.172517 0.000000 -0.000000 0.000000 49.805908 -4.646411 -12.899465 -1.489538 0.199723 3.090912 -1.416026 -3.198616 4.985674 0.000001 0.000000 0.000001 18.224770 -13.095058 -16.178951 3.672733 0.000000 0.000000 -14.638158 -14.303812 -17.065189 -0.000000 -0.000000 -0.000000 3.724537 0.000000 -0.000000 0.000000 0.000000 -0.000000 20.572992 -4.593854 -6.068633 -2.147194 -0.000000 -0.000000 -5.045509 23.042723 -3.225692 0.000000 0.000000 -0.000000 0.720036 0.000000 0.000000 0.000000 -0.000000 0.000000
